<?xml version="1.0" standalone="no"?>
<!DOCTYPE svg PUBLIC "-//W3C//DTD SVG 20010904//EN"
 "http://www.w3.org/TR/2001/REC-SVG-20010904/DTD/svg10.dtd">
<svg version="1.0" xmlns="http://www.w3.org/2000/svg"
 width="50.000000pt" height="50.000000pt" viewBox="0 0 50.000000 50.000000"
 preserveAspectRatio="xMidYMid meet" opacity='0.65'>

<g transform="translate(0.000000,50.000000) scale(0.100000,-0.100000)"
fill="#000000" stroke="none">
<path d="M140 415 l0 -55 -55 0 c-54 0 -55 0 -55 -30 0 -30 1 -30 55 -30 l55
0 0 -50 0 -50 -55 0 c-54 0 -55 0 -55 -30 0 -30 1 -30 55 -30 l55 0 0 -55 c0
-54 0 -55 30 -55 30 0 30 1 30 55 l0 55 50 0 50 0 0 -55 c0 -54 0 -55 30 -55
30 0 30 1 30 55 l0 55 55 0 c54 0 55 0 55 30 0 30 -1 30 -55 30 l-55 0 0 50 0
50 55 0 c54 0 55 0 55 30 0 30 -1 30 -55 30 l-55 0 0 55 c0 54 0 55 -30 55
-30 0 -30 -1 -30 -55 l0 -55 -50 0 -50 0 0 55 c0 54 0 55 -30 55 -30 0 -30 -1
-30 -55z m160 -165 l0 -50 -50 0 -50 0 0 50 0 50 50 0 50 0 0 -50z"/>
</g>
</svg>
